<svg width="25" height="24" viewBox="0 0 25 24" fill="none" xmlns="http://www.w3.org/2000/svg">
<path opacity="0.1" d="M3.2251 3.875H8.5376L9.4751 5.75H17.6001V18.25H10.1001L8.2251 20.125H3.2251V3.875Z" fill="#5BB4FF"/>
<path opacity="0.4" d="M8.8501 2.625V5.75H17.6001V18.25H8.8501V21.375H20.7251L21.9751 19.5V3.875L20.1001 2.625H8.8501Z" fill="#5BB4FF"/>
<path fill-rule="evenodd" clip-rule="evenodd" d="M22.6001 19.2222C22.6001 20.7563 21.3564 22 19.8223 22H10.3779C9.55534 22 8.83718 21.5531 8.45295 20.8889H4.82232C3.59502 20.8889 2.6001 19.894 2.6001 18.6667V5.33333C2.6001 4.10603 3.59502 3.11111 4.82232 3.11111H8.45295C8.83718 2.44689 9.55534 2 10.3779 2H19.8223C21.3564 2 22.6001 3.24365 22.6001 4.77778V19.2222ZM10.3779 3.11111H19.8223C20.7428 3.11111 21.489 3.8573 21.489 4.77778V19.2222C21.489 20.1427 20.7428 20.8889 19.8223 20.8889H10.3779C9.76423 20.8889 9.26676 20.3914 9.26676 19.7778C9.26676 19.1641 9.76423 18.6667 10.3779 18.6667H18.1557V5.33333H10.3779C9.76423 5.33333 9.26676 4.83587 9.26676 4.22222C9.26676 3.60857 9.76423 3.11111 10.3779 3.11111ZM17.0445 6.44444V17.5556H10.3779C9.15058 17.5556 8.15565 18.5505 8.15565 19.7778H4.82232C4.20867 19.7778 3.71121 19.2803 3.71121 18.6667V5.33333C3.71121 4.71968 4.20867 4.22222 4.82232 4.22222H8.15565C8.15565 5.44952 9.15058 6.44444 10.3779 6.44444H17.0445Z" fill="#5BB4FF"/>
<path fill-rule="evenodd" clip-rule="evenodd" d="M21.1636 3.73611L18.1557 6.11901L17.37 5.33333L20.3779 2.95044L21.1636 3.73611Z" fill="#5BB4FF"/>
<path fill-rule="evenodd" clip-rule="evenodd" d="M18.1557 17.881L21.1636 20.2639L20.3779 21.0496L17.37 18.6667L18.1557 17.881Z" fill="#5BB4FF"/>
</svg>