<svg width="25" height="24" viewBox="0 0 25 24" fill="none" xmlns="http://www.w3.org/2000/svg">
<path opacity="0.1" d="M2.8252 3.875H8.1377L9.0752 5.75H17.2002V18.25H9.7002L7.8252 20.125H2.8252V3.875Z" fill="#EB950E"/>
<path opacity="0.4" d="M8.4502 2.625V5.75H17.2002V18.25H8.4502V21.375H20.3252L21.5752 19.5V3.875L19.7002 2.625H8.4502Z" fill="#EB950E"/>
<path fill-rule="evenodd" clip-rule="evenodd" d="M22.2002 19.2222C22.2002 20.7563 20.9565 22 19.4224 22H9.97797C9.15544 22 8.43728 21.5531 8.05305 20.8889H4.42242C3.19512 20.8889 2.2002 19.894 2.2002 18.6667V5.33333C2.2002 4.10603 3.19512 3.11111 4.42242 3.11111H8.05304C8.43728 2.44689 9.15544 2 9.97797 2H19.4224C20.9565 2 22.2002 3.24365 22.2002 4.77778V19.2222ZM9.97797 3.11111H19.4224C20.3429 3.11111 21.0891 3.8573 21.0891 4.77778V19.2222C21.0891 20.1427 20.3429 20.8889 19.4224 20.8889H9.97797C9.36432 20.8889 8.86686 20.3914 8.86686 19.7778C8.86686 19.1641 9.36432 18.6667 9.97797 18.6667H17.7558V5.33333H9.97797C9.36432 5.33333 8.86686 4.83587 8.86686 4.22222C8.86686 3.60857 9.36432 3.11111 9.97797 3.11111ZM16.6446 6.44444V17.5556H9.97797C8.75067 17.5556 7.75575 18.5505 7.75575 19.7778H4.42242C3.80877 19.7778 3.31131 19.2803 3.31131 18.6667V5.33333C3.31131 4.71968 3.80877 4.22222 4.42242 4.22222H7.75575C7.75575 5.44952 8.75067 6.44444 9.97797 6.44444H16.6446Z" fill="#EB950E"/>
<path fill-rule="evenodd" clip-rule="evenodd" d="M20.7636 3.73611L17.7558 6.11901L16.9701 5.33333L19.978 2.95044L20.7636 3.73611Z" fill="#EB950E"/>
<path fill-rule="evenodd" clip-rule="evenodd" d="M17.7558 17.881L20.7636 20.2639L19.978 21.0496L16.9701 18.6667L17.7558 17.881Z" fill="#EB950E"/>
</svg>