<svg width="25" height="24" viewBox="0 0 25 24" fill="none" xmlns="http://www.w3.org/2000/svg">
<path opacity="0.1" d="M3.0249 3.875H8.3374L9.2749 5.75H17.3999V18.25H9.8999L8.0249 20.125H3.0249V3.875Z" fill="#2E7D31"/>
<path opacity="0.4" d="M8.6499 2.625V5.75H17.3999V18.25H8.6499V21.375H20.5249L21.7749 19.5V3.875L19.8999 2.625H8.6499Z" fill="#2E7D31"/>
<path fill-rule="evenodd" clip-rule="evenodd" d="M22.3999 19.2222C22.3999 20.7563 21.1562 22 19.6221 22H10.1777C9.35514 22 8.63699 21.5531 8.25275 20.8889H4.62212C3.39482 20.8889 2.3999 19.894 2.3999 18.6667V5.33333C2.3999 4.10603 3.39483 3.11111 4.62212 3.11111H8.25275C8.63698 2.44689 9.35514 2 10.1777 2H19.6221C21.1562 2 22.3999 3.24365 22.3999 4.77778V19.2222ZM10.1777 3.11111H19.6221C20.5426 3.11111 21.2888 3.8573 21.2888 4.77778V19.2222C21.2888 20.1427 20.5426 20.8889 19.6221 20.8889H10.1777C9.56403 20.8889 9.06657 20.3914 9.06657 19.7778C9.06657 19.1641 9.56403 18.6667 10.1777 18.6667H17.9555V5.33333H10.1777C9.56403 5.33333 9.06657 4.83587 9.06657 4.22222C9.06657 3.60857 9.56403 3.11111 10.1777 3.11111ZM16.8443 6.44444V17.5556H10.1777C8.95038 17.5556 7.95546 18.5505 7.95546 19.7778H4.62212C4.00847 19.7778 3.51101 19.2803 3.51101 18.6667V5.33333C3.51101 4.71968 4.00847 4.22222 4.62212 4.22222H7.95546C7.95546 5.44952 8.95038 6.44444 10.1777 6.44444H16.8443Z" fill="#2E7D31"/>
<path fill-rule="evenodd" clip-rule="evenodd" d="M20.9634 3.73611L17.9555 6.11901L17.1698 5.33333L20.1777 2.95044L20.9634 3.73611Z" fill="#2E7D31"/>
<path fill-rule="evenodd" clip-rule="evenodd" d="M17.9555 17.881L20.9634 20.2639L20.1777 21.0496L17.1698 18.6667L17.9555 17.881Z" fill="#2E7D31"/>
</svg>
