<svg width="17" height="27" viewBox="0 0 17 27" fill="none" xmlns="http://www.w3.org/2000/svg">
<path d="M6.30206 26.667C6.16069 26.6659 6.02143 26.6326 5.89492 26.5695C5.7684 26.5064 5.65797 26.4153 5.57206 26.303C5.49102 26.1953 5.43671 26.0698 5.41359 25.937C5.39047 25.8042 5.3992 25.6678 5.43906 25.539L7.81306 17.162C7.87602 16.9438 7.88563 16.7137 7.84106 16.491C7.79876 16.2784 7.70909 16.0782 7.57873 15.905C7.44836 15.7319 7.28065 15.5904 7.08806 15.491C6.88603 15.3874 6.66208 15.3339 6.43506 15.335H1.76706C1.64222 15.3353 1.51786 15.3195 1.39706 15.288C1.28222 15.2577 1.17167 15.213 1.06806 15.155C0.866371 15.0412 0.694974 14.8806 0.568287 14.6867C0.441599 14.4929 0.363327 14.2714 0.340055 14.041C0.328381 13.9227 0.331741 13.8034 0.350055 13.686C0.369515 13.5626 0.404806 13.4423 0.455055 13.328L5.82006 1.1C5.96273 0.773307 6.19752 0.495276 6.49571 0.299915C6.7939 0.104554 7.14257 0.000333257 7.49906 0L11.4061 0L6.79206 10.855C6.72679 11.0079 6.68142 11.1685 6.65706 11.333C6.63419 11.4897 6.63117 11.6486 6.64806 11.806C6.68155 12.1124 6.78778 12.4065 6.9579 12.6636C7.12801 12.9206 7.35709 13.1334 7.62606 13.284C7.76442 13.3609 7.91192 13.42 8.06506 13.46C8.22569 13.5019 8.39104 13.5231 8.55706 13.523C8.86339 13.5225 9.16831 13.5646 9.46306 13.648C9.74096 13.7272 10.0068 13.8439 10.2531 13.995C10.7306 14.2907 11.1245 14.7037 11.3972 15.1947C11.6699 15.6857 11.8124 16.2383 11.8111 16.8C11.8088 17.089 11.7671 17.3763 11.6871 17.654C11.6017 17.9483 11.4758 18.2293 11.3131 18.489L6.21306 26.659C6.24206 26.659 6.27106 26.659 6.30106 26.659C6.41887 26.6595 6.53546 26.635 6.64306 26.587C6.68808 26.5668 6.73125 26.5427 6.77206 26.515C6.63341 26.61 6.46913 26.6606 6.30106 26.66L6.30206 26.667Z" fill="#4C4C4C"/>
<path opacity="0.92" d="M6.98314 26.323L16.0221 14.748C16.2555 14.4495 16.4003 14.0915 16.44 13.7147C16.4797 13.3379 16.4127 12.9576 16.2466 12.617C16.0805 12.2765 15.822 11.9895 15.5007 11.7888C15.1793 11.5881 14.808 11.4818 14.4291 11.482C14.1315 11.4822 13.8384 11.4081 13.5766 11.2666C13.3147 11.125 13.0923 10.9203 12.9295 10.6711C12.7666 10.4219 12.6685 10.136 12.644 9.83933C12.6195 9.54265 12.6694 9.24454 12.7891 8.972L15.5961 2.572C15.7189 2.29284 15.77 1.9875 15.745 1.68359C15.72 1.37969 15.6196 1.08681 15.4529 0.831471C15.2862 0.576129 15.0585 0.366379 14.7903 0.221199C14.5222 0.0760198 14.2221 -6.38695e-06 13.9171 4.02443e-10L11.4061 4.02443e-10L6.79214 10.855C6.66824 11.1466 6.61851 11.4644 6.64742 11.78C6.67632 12.0955 6.78295 12.399 6.95778 12.6632C7.1326 12.9275 7.37018 13.1443 7.64928 13.2944C7.92837 13.4444 8.24028 13.523 8.55714 13.523C9.13688 13.5231 9.70603 13.6783 10.2056 13.9725C10.7051 14.2667 11.1168 14.6892 11.398 15.1961C11.6792 15.7031 11.8196 16.2761 11.8047 16.8556C11.7898 17.4352 11.62 18.0002 11.3131 18.492L6.21313 26.662C6.35988 26.6774 6.5081 26.6542 6.64314 26.5947C6.77818 26.5353 6.89538 26.4416 6.98314 26.323Z" fill="#4C4C4C"/>
</svg>
