<svg width="35" height="19" viewBox="0 0 35 19" fill="none" xmlns="http://www.w3.org/2000/svg">
<path d="M7.5485 17.72C6.60842 17.7264 5.67649 17.5453 4.80729 17.1871C3.93809 16.8289 3.14909 16.3009 2.4865 15.634C1.59035 14.7285 0.990513 13.5721 0.766504 12.318V12.308C0.710749 11.9981 0.677329 11.6846 0.666504 11.37C0.672898 10.4545 0.880019 9.55153 1.27327 8.72478C1.66651 7.89802 2.23631 7.16759 2.9425 6.58496C3.8496 5.83115 4.9302 5.31518 6.0867 5.08368C7.24319 4.85217 8.43913 4.91241 9.5665 5.25896C10.4539 5.49252 11.2812 5.91251 11.9935 6.49096C13.1519 7.36558 13.9584 8.62653 14.2665 10.045V10.07C14.3241 10.4853 14.3575 10.9037 14.3665 11.323C14.3569 11.947 14.2716 12.5675 14.1125 13.171C13.7443 14.3027 13.0604 15.3057 12.1415 16.062C10.8553 17.1414 9.22759 17.7289 7.5485 17.72ZM7.5485 8.14796C6.678 8.12017 5.832 8.43868 5.19597 9.03366C4.55993 9.62864 4.18577 10.4515 4.1555 11.322C4.18578 12.1916 4.55922 13.0138 5.19413 13.6088C5.82905 14.2038 6.67376 14.5231 7.5435 14.497C8.41342 14.5234 9.25839 14.2042 9.89352 13.6092C10.5287 13.0141 10.9022 12.1918 10.9325 11.322C10.9027 10.4518 10.5294 9.62893 9.89421 9.03347C9.25902 8.43802 8.41375 8.11853 7.5435 8.14496L7.5485 8.14796Z" fill="white"/>
<path opacity="0.6" d="M23.2895 15.5389H23.0255C19.4255 15.5199 17.0545 14.8189 16.4995 13.8869V13.8819V16.7249C16.4995 17.8149 19.4835 18.6679 23.2255 18.6679C26.9675 18.6679 30.0025 17.8149 30.0025 16.7249V13.5969C30.0005 14.6279 26.9305 15.5199 23.2895 15.5389Z" fill="white"/>
<path opacity="0.5" d="M23.1726 12.4129C19.5826 12.4129 16.9026 11.6549 16.4966 10.7079V13.8819C17.0526 14.8289 19.4806 15.5399 23.1726 15.5399C26.8646 15.5399 30.0006 14.6399 30.0006 13.5979V10.5659C29.7496 11.6069 26.7636 12.4129 23.1726 12.4129Z" fill="white"/>
<path d="M29.9994 10.566C29.7464 11.608 26.7624 12.414 23.1714 12.414C19.5804 12.414 16.9004 11.656 23.1714 5.73796C29.4424 -0.180041 21.4664 5.73798 23.5714 6.13798C25.6764 6.53798 23.5714 6.13796 24.5714 6.08696C25.5714 6.03596 24.3344 6.08696 24.3344 6.08696C24.3344 6.08696 24.6884 5.13897 27.5204 4.38097C30.3524 3.62297 34.1454 2.62797 27.5204 4.48097C29.3182 4.46985 31.1076 4.72529 32.8304 5.23897C33.7914 5.57097 34.3474 5.99696 34.3474 6.47096V6.56596L29.9994 10.566Z" fill="white"/>
<path d="M23.0703 2.321C22.4633 3.221 19.4794 3.884 16.1924 3.884C12.9054 3.884 9.66834 3.079 9.46634 2.084C9.44729 2.06599 9.43275 2.04376 9.42389 2.01909C9.41503 1.99442 9.4121 1.96801 9.41534 1.942C9.41534 0.900001 12.4504 0 16.1924 0C19.0754 0 21.7053 0.521007 22.7163 1.27901C22.844 1.33952 22.9533 1.43273 23.0332 1.54918C23.1131 1.66563 23.1608 1.80116 23.1714 1.942C23.1818 2.00872 23.1782 2.07688 23.1608 2.14214C23.1434 2.20739 23.1126 2.26831 23.0703 2.321Z" fill="white"/>
<path opacity="0.4" d="M16.1926 3.88512C13.0606 3.88512 9.9756 3.15412 9.5166 2.22412V5.24413L9.5676 5.25912C10.4554 5.49235 11.2832 5.91237 11.9956 6.49112C12.0356 6.52212 12.0746 6.55413 12.1136 6.59113C13.454 6.88163 14.8221 7.02448 16.1936 7.01712C19.7846 7.01712 22.8696 6.11712 23.0716 5.07512V2.32712C22.4676 3.22212 19.4796 3.88512 16.1926 3.88512Z" fill="white"/>
<path opacity="0.5" d="M22.9407 5.35791C22.6715 5.67271 22.3277 5.91506 21.9407 6.0629C21.6782 6.17879 21.4091 6.27899 21.1347 6.36292C20.7281 6.4878 20.3152 6.59094 19.8977 6.67191C19.5377 6.74291 19.1567 6.80392 18.7577 6.85492C18.5577 6.88025 18.354 6.90257 18.1467 6.92191C17.5247 6.97991 16.8697 7.0119 16.1957 7.0119C14.8242 7.01932 13.4561 6.87648 12.1157 6.58591C13.2118 7.45565 13.9741 8.67712 14.2737 10.0439L16.1957 10.1359L16.4487 10.2309C16.8027 9.2839 19.6347 8.52491 23.0737 8.47791V5.06689C23.0512 5.17245 23.0058 5.2718 22.9407 5.35791Z" fill="white"/>
<path opacity="0.6" d="M16.4455 10.4699V10.2329C16.4515 10.2179 16.4595 10.2019 16.4665 10.1869C16.4595 10.2019 16.4515 10.2169 16.4455 10.2329L16.1925 10.1379L14.2715 10.0459C14.3299 10.4692 14.3632 10.8956 14.3715 11.3229C14.362 11.9469 14.2771 12.5674 14.1185 13.1709C14.1075 13.2059 14.0945 13.2399 14.0825 13.2709L16.1915 13.3569H16.4915V10.7039C16.4528 10.6324 16.4367 10.5508 16.4455 10.4699Z" fill="white"/>
<path opacity="0.7" d="M16.1923 13.3599L14.0833 13.2739C13.7153 14.3324 13.0711 15.2732 12.2173 15.9989C13.5095 16.2589 14.8242 16.3905 16.1423 16.3919H16.4963V13.881V13.3599H16.1923Z" fill="white"/>
<path opacity="0.4" d="M7.54472 8.14907C8.16374 8.18944 8.75746 8.40992 9.25278 8.78338C9.7481 9.15684 10.1234 9.66698 10.3325 10.251C10.5417 10.835 10.5754 11.4675 10.4297 12.0705C10.2841 12.6734 9.96523 13.2207 9.51253 13.6448C9.05982 14.0689 8.49298 14.3514 7.88179 14.4575C7.2706 14.5636 6.64171 14.4886 6.07256 14.2419C5.5034 13.9952 5.0188 13.5874 4.67841 13.0688C4.33801 12.5502 4.15669 11.9434 4.15674 11.3231C4.18623 10.4533 4.55946 9.63071 5.19458 9.0357C5.8297 8.4407 6.67486 8.12183 7.54472 8.14907Z" fill="white"/>
</svg>