<svg width="25" height="27" viewBox="0 0 25 27" fill="none" xmlns="http://www.w3.org/2000/svg">
<path d="M6.4 12.571H0L3.2 6.32104L6.4 12.568V12.571Z" fill="#4C4C4C"/>
<path opacity="0.4" d="M12.8002 0.8V2.419C12.8002 2.63117 12.7159 2.83466 12.5659 2.98469C12.4159 3.13471 12.2124 3.219 12.0002 3.219C11.788 3.219 11.5845 3.13471 11.4345 2.98469C11.2845 2.83466 11.2002 2.63117 11.2002 2.419V0.8C11.2002 0.587827 11.2845 0.384344 11.4345 0.234315C11.5845 0.0842855 11.788 0 12.0002 0C12.2124 0 12.4159 0.0842855 12.5659 0.234315C12.7159 0.384344 12.8002 0.587827 12.8002 0.8Z" fill="#4C4C4C"/>
<path opacity="0.4" d="M8.03981 4.79388C7.82843 4.79462 7.6252 4.71239 7.4738 4.56488L6.3428 3.46488C6.26939 3.39333 6.21104 3.3078 6.1712 3.21334C6.13136 3.11888 6.11084 3.0174 6.11084 2.91488C6.11084 2.81236 6.13136 2.71088 6.1712 2.61642C6.21104 2.52196 6.26939 2.43643 6.3428 2.36488C6.49445 2.21807 6.69724 2.13599 6.90831 2.13599C7.11938 2.13599 7.32216 2.21807 7.4738 2.36488L8.60481 3.46488C8.67823 3.53643 8.73657 3.62196 8.77641 3.71642C8.81625 3.81088 8.83678 3.91236 8.83678 4.01488C8.83678 4.1174 8.81625 4.21888 8.77641 4.31334C8.73657 4.4078 8.67823 4.49333 8.60481 4.56488C8.45367 4.71215 8.25084 4.79436 8.03981 4.79388Z" fill="#4C4C4C"/>
<path opacity="0.4" d="M15.9611 4.79388C15.7497 4.79462 15.5465 4.71239 15.3951 4.56488C15.3217 4.49333 15.2633 4.4078 15.2235 4.31334C15.1836 4.21888 15.1631 4.1174 15.1631 4.01488C15.1631 3.91236 15.1836 3.81088 15.2235 3.71642C15.2633 3.62196 15.3217 3.53643 15.3951 3.46488L16.5261 2.36488C16.6777 2.21807 16.8805 2.13599 17.0916 2.13599C17.3026 2.13599 17.5054 2.21807 17.6571 2.36488C17.7305 2.43643 17.7888 2.52196 17.8287 2.61642C17.8685 2.71088 17.889 2.81236 17.889 2.91488C17.889 3.0174 17.8685 3.11888 17.8287 3.21334C17.7888 3.3078 17.7305 3.39333 17.6571 3.46488L16.5261 4.56488C16.3749 4.71215 16.1721 4.79436 15.9611 4.79388Z" fill="#4C4C4C"/>
<path opacity="0.8" d="M6.4002 12.571L3.2002 6.32104H12.0002L6.4002 12.569V12.571Z" fill="#4C4C4C"/>
<path opacity="0.6" d="M11.9999 12.571H6.3999L11.9999 6.32104V12.571Z" fill="#4C4C4C"/>
<path opacity="0.7" d="M17.6 12.571H12V6.32104L17.6 12.571Z" fill="#4C4C4C"/>
<path opacity="0.8" d="M17.601 12.571L12.001 6.32104H20.801L17.601 12.569V12.571Z" fill="#4C4C4C"/>
<path d="M24.0001 12.571H17.6001L20.8001 6.32104L24.0001 12.568V12.571Z" fill="#4C4C4C"/>
<path opacity="0.7" d="M0 12.571L12 26.6861L6.4 12.571H0Z" fill="#4C4C4C"/>
<path opacity="0.8" d="M11.9999 26.677L6.3999 12.571H11.9999V26.676V26.677Z" fill="#4C4C4C"/>
<path d="M12.001 26.678V12.571H17.601L12.001 26.678Z" fill="#4C4C4C"/>
<path opacity="0.7" d="M12.0039 26.678L17.6039 12.571H24.0039L12.0039 26.678Z" fill="#4C4C4C"/>
</svg>
